<mxfile host="Electron" modified="2023-10-16T13:22:45.923Z" agent="Mozilla/5.0 (Windows NT 10.0; Win64; x64) AppleWebKit/537.36 (KHTML, like Gecko) draw.io/22.0.2 Chrome/114.0.5735.289 Electron/25.8.4 Safari/537.36" etag="z45vuS3kVBTnIe5eA3gh" version="22.0.2" type="device">
  <diagram name="Page-1" id="Ut88xIy_3bNIH3PiBV4U">
    <mxGraphModel dx="1500" dy="887" grid="1" gridSize="10" guides="1" tooltips="1" connect="1" arrows="1" fold="1" page="1" pageScale="1" pageWidth="1100" pageHeight="850" math="0" shadow="0">
      <root>
        <mxCell id="0" />
        <mxCell id="1" parent="0" />
        <mxCell id="1S91zq7ppGTAsVe1ija--1" value="" style="rounded=0;whiteSpace=wrap;html=1;movable=0;resizable=0;rotatable=0;deletable=0;editable=0;locked=1;connectable=0;" parent="1" vertex="1">
          <mxGeometry x="140" y="70" width="810" height="920" as="geometry" />
        </mxCell>
        <mxCell id="1S91zq7ppGTAsVe1ija--2" value="&lt;font style=&quot;font-size: 24px;&quot;&gt;User&lt;/font&gt;" style="shape=umlActor;verticalLabelPosition=bottom;verticalAlign=top;html=1;outlineConnect=0;fillStyle=auto;strokeWidth=5;fontSize=24;fontStyle=1" parent="1" vertex="1">
          <mxGeometry x="30" y="400" width="80" height="130" as="geometry" />
        </mxCell>
        <mxCell id="1S91zq7ppGTAsVe1ija--3" value="&lt;font style=&quot;font-size: 24px;&quot;&gt;Admin&lt;/font&gt;" style="shape=umlActor;verticalLabelPosition=bottom;verticalAlign=top;html=1;outlineConnect=0;fillStyle=auto;strokeWidth=5;fontStyle=1" parent="1" vertex="1">
          <mxGeometry x="990" y="400" width="80" height="130" as="geometry" />
        </mxCell>
        <mxCell id="1S91zq7ppGTAsVe1ija--4" value="View Products" style="ellipse;whiteSpace=wrap;html=1;fontSize=24;fontStyle=1;fillColor=#76608a;fontColor=#ffffff;strokeColor=#432D57;" parent="1" vertex="1">
          <mxGeometry x="280" y="90" width="140" height="110" as="geometry" />
        </mxCell>
        <mxCell id="1S91zq7ppGTAsVe1ija--9" value="Select Product" style="ellipse;whiteSpace=wrap;html=1;fontSize=24;fontStyle=1;fillColor=#76608a;fontColor=#ffffff;strokeColor=#432D57;" parent="1" vertex="1">
          <mxGeometry x="280" y="210" width="140" height="110" as="geometry" />
        </mxCell>
        <mxCell id="1S91zq7ppGTAsVe1ija--10" value="Add to Cart" style="ellipse;whiteSpace=wrap;html=1;fontSize=24;fontStyle=1;fillColor=#76608a;fontColor=#ffffff;strokeColor=#432D57;" parent="1" vertex="1">
          <mxGeometry x="280" y="330" width="140" height="110" as="geometry" />
        </mxCell>
        <mxCell id="1S91zq7ppGTAsVe1ija--26" value="" style="group;fontSize=24;" parent="1" vertex="1" connectable="0">
          <mxGeometry x="240" y="530" width="480" height="330" as="geometry" />
        </mxCell>
        <mxCell id="1S91zq7ppGTAsVe1ija--11" value="Make &lt;br style=&quot;font-size: 24px;&quot;&gt;Payment" style="ellipse;whiteSpace=wrap;html=1;fontSize=24;fillColor=#76608a;fontColor=#ffffff;strokeColor=#432D57;" parent="1S91zq7ppGTAsVe1ija--26" vertex="1">
          <mxGeometry x="110" y="30" width="140" height="110" as="geometry" />
        </mxCell>
        <mxCell id="1S91zq7ppGTAsVe1ija--12" value="By Debit Card" style="ellipse;whiteSpace=wrap;html=1;fontSize=24;fillColor=#76608a;fontColor=#ffffff;strokeColor=#432D57;" parent="1S91zq7ppGTAsVe1ija--26" vertex="1">
          <mxGeometry x="170" y="230" width="120" height="100" as="geometry" />
        </mxCell>
        <mxCell id="1S91zq7ppGTAsVe1ija--13" value="By COD" style="ellipse;whiteSpace=wrap;html=1;fontSize=24;fillColor=#76608a;fontColor=#ffffff;strokeColor=#432D57;" parent="1S91zq7ppGTAsVe1ija--26" vertex="1">
          <mxGeometry x="315" y="140" width="120" height="100" as="geometry" />
        </mxCell>
        <mxCell id="1S91zq7ppGTAsVe1ija--14" value="By Credit Card" style="ellipse;whiteSpace=wrap;html=1;fontSize=24;fillColor=#76608a;fontColor=#ffffff;strokeColor=#432D57;" parent="1S91zq7ppGTAsVe1ija--26" vertex="1">
          <mxGeometry y="200" width="120" height="100" as="geometry" />
        </mxCell>
        <mxCell id="1S91zq7ppGTAsVe1ija--18" value="By UPI" style="ellipse;whiteSpace=wrap;html=1;fontSize=24;fillColor=#76608a;fontColor=#ffffff;strokeColor=#432D57;" parent="1S91zq7ppGTAsVe1ija--26" vertex="1">
          <mxGeometry x="360" width="120" height="100" as="geometry" />
        </mxCell>
        <mxCell id="1S91zq7ppGTAsVe1ija--20" value="&amp;lt;&amp;lt;extend&amp;gt;&amp;gt;" style="text;html=1;strokeColor=none;fillColor=none;align=center;verticalAlign=middle;whiteSpace=wrap;rounded=0;fontSize=16;" parent="1S91zq7ppGTAsVe1ija--26" vertex="1">
          <mxGeometry x="270" y="20" width="60" height="30" as="geometry" />
        </mxCell>
        <mxCell id="1S91zq7ppGTAsVe1ija--21" value="&amp;lt;&amp;lt;extend&amp;gt;&amp;gt;" style="text;html=1;strokeColor=none;fillColor=none;align=center;verticalAlign=middle;whiteSpace=wrap;rounded=0;fontSize=16;rotation=45;" parent="1S91zq7ppGTAsVe1ija--26" vertex="1">
          <mxGeometry x="270" y="100" width="60" height="30" as="geometry" />
        </mxCell>
        <mxCell id="1S91zq7ppGTAsVe1ija--22" value="&amp;lt;&amp;lt;extend&amp;gt;&amp;gt;" style="text;html=1;strokeColor=none;fillColor=none;align=center;verticalAlign=middle;whiteSpace=wrap;rounded=0;fontSize=16;rotation=-60;" parent="1S91zq7ppGTAsVe1ija--26" vertex="1">
          <mxGeometry x="80" y="150" width="60" height="30" as="geometry" />
        </mxCell>
        <mxCell id="1S91zq7ppGTAsVe1ija--24" value="&amp;lt;&amp;lt;extend&amp;gt;&amp;gt;" style="text;html=1;strokeColor=none;fillColor=none;align=center;verticalAlign=middle;whiteSpace=wrap;rounded=0;fontSize=16;rotation=-100;" parent="1S91zq7ppGTAsVe1ija--26" vertex="1">
          <mxGeometry x="180" y="175" width="60" height="30" as="geometry" />
        </mxCell>
        <mxCell id="1S91zq7ppGTAsVe1ija--17" value="" style="endArrow=open;endSize=12;dashed=1;html=1;rounded=0;exitX=0.5;exitY=0;exitDx=0;exitDy=0;entryX=0.776;entryY=0.961;entryDx=0;entryDy=0;entryPerimeter=0;" parent="1S91zq7ppGTAsVe1ija--26" source="1S91zq7ppGTAsVe1ija--12" target="1S91zq7ppGTAsVe1ija--11" edge="1">
          <mxGeometry width="160" relative="1" as="geometry">
            <mxPoint x="518" y="565" as="sourcePoint" />
            <mxPoint x="430" y="545" as="targetPoint" />
          </mxGeometry>
        </mxCell>
        <mxCell id="1S91zq7ppGTAsVe1ija--15" value="" style="endArrow=open;endSize=12;dashed=1;html=1;rounded=0;exitX=0;exitY=0;exitDx=0;exitDy=0;entryX=1;entryY=0.5;entryDx=0;entryDy=0;" parent="1S91zq7ppGTAsVe1ija--26" source="1S91zq7ppGTAsVe1ija--13" target="1S91zq7ppGTAsVe1ija--11" edge="1">
          <mxGeometry width="160" relative="1" as="geometry">
            <mxPoint x="430" y="460" as="sourcePoint" />
            <mxPoint x="590" y="460" as="targetPoint" />
          </mxGeometry>
        </mxCell>
        <mxCell id="1S91zq7ppGTAsVe1ija--16" value="" style="endArrow=open;endSize=12;dashed=1;html=1;rounded=0;exitX=1;exitY=0;exitDx=0;exitDy=0;entryX=0.269;entryY=0.94;entryDx=0;entryDy=0;entryPerimeter=0;" parent="1S91zq7ppGTAsVe1ija--26" source="1S91zq7ppGTAsVe1ija--14" target="1S91zq7ppGTAsVe1ija--11" edge="1">
          <mxGeometry width="160" relative="1" as="geometry">
            <mxPoint x="440" y="470" as="sourcePoint" />
            <mxPoint x="600" y="470" as="targetPoint" />
          </mxGeometry>
        </mxCell>
        <mxCell id="1S91zq7ppGTAsVe1ija--19" value="" style="endArrow=open;endSize=12;dashed=1;html=1;rounded=0;exitX=0;exitY=0.5;exitDx=0;exitDy=0;entryX=1;entryY=0;entryDx=0;entryDy=0;" parent="1S91zq7ppGTAsVe1ija--26" source="1S91zq7ppGTAsVe1ija--18" target="1S91zq7ppGTAsVe1ija--11" edge="1">
          <mxGeometry width="160" relative="1" as="geometry">
            <mxPoint x="512" y="615" as="sourcePoint" />
            <mxPoint x="430" y="545" as="targetPoint" />
          </mxGeometry>
        </mxCell>
        <mxCell id="1S91zq7ppGTAsVe1ija--27" value="Select Payment Options" style="ellipse;whiteSpace=wrap;html=1;fontSize=24;fontStyle=1;fillColor=#76608a;fontColor=#ffffff;strokeColor=#432D57;" parent="1" vertex="1">
          <mxGeometry x="280" y="450" width="140" height="110" as="geometry" />
        </mxCell>
        <mxCell id="1S91zq7ppGTAsVe1ija--28" value="" style="endArrow=none;html=1;rounded=0;exitX=0.5;exitY=0;exitDx=0;exitDy=0;exitPerimeter=0;entryX=0;entryY=0.5;entryDx=0;entryDy=0;" parent="1" source="1S91zq7ppGTAsVe1ija--2" target="1S91zq7ppGTAsVe1ija--4" edge="1">
          <mxGeometry width="50" height="50" relative="1" as="geometry">
            <mxPoint x="490" y="630" as="sourcePoint" />
            <mxPoint x="540" y="580" as="targetPoint" />
          </mxGeometry>
        </mxCell>
        <mxCell id="1S91zq7ppGTAsVe1ija--29" value="" style="endArrow=none;html=1;rounded=0;exitX=0.75;exitY=0.1;exitDx=0;exitDy=0;exitPerimeter=0;entryX=0;entryY=0.5;entryDx=0;entryDy=0;" parent="1" source="1S91zq7ppGTAsVe1ija--2" target="1S91zq7ppGTAsVe1ija--9" edge="1">
          <mxGeometry width="50" height="50" relative="1" as="geometry">
            <mxPoint x="80" y="410" as="sourcePoint" />
            <mxPoint x="290" y="155" as="targetPoint" />
          </mxGeometry>
        </mxCell>
        <mxCell id="1S91zq7ppGTAsVe1ija--30" value="" style="endArrow=none;html=1;rounded=0;exitX=1;exitY=0.3333333333333333;exitDx=0;exitDy=0;exitPerimeter=0;entryX=0;entryY=0.5;entryDx=0;entryDy=0;" parent="1" source="1S91zq7ppGTAsVe1ija--2" target="1S91zq7ppGTAsVe1ija--10" edge="1">
          <mxGeometry width="50" height="50" relative="1" as="geometry">
            <mxPoint x="100" y="423" as="sourcePoint" />
            <mxPoint x="290" y="285" as="targetPoint" />
          </mxGeometry>
        </mxCell>
        <mxCell id="1S91zq7ppGTAsVe1ija--31" value="" style="endArrow=none;html=1;rounded=0;exitX=0.5;exitY=0.5;exitDx=0;exitDy=0;exitPerimeter=0;entryX=0;entryY=0.5;entryDx=0;entryDy=0;" parent="1" source="1S91zq7ppGTAsVe1ija--2" target="1S91zq7ppGTAsVe1ija--27" edge="1">
          <mxGeometry width="50" height="50" relative="1" as="geometry">
            <mxPoint x="120" y="453" as="sourcePoint" />
            <mxPoint x="290" y="415" as="targetPoint" />
          </mxGeometry>
        </mxCell>
        <mxCell id="1S91zq7ppGTAsVe1ija--32" value="" style="endArrow=none;html=1;rounded=0;entryX=1;entryY=1;entryDx=0;entryDy=0;entryPerimeter=0;exitX=0;exitY=0.5;exitDx=0;exitDy=0;" parent="1" source="1S91zq7ppGTAsVe1ija--11" target="1S91zq7ppGTAsVe1ija--2" edge="1">
          <mxGeometry width="50" height="50" relative="1" as="geometry">
            <mxPoint x="490" y="630" as="sourcePoint" />
            <mxPoint x="540" y="580" as="targetPoint" />
          </mxGeometry>
        </mxCell>
        <mxCell id="1S91zq7ppGTAsVe1ija--33" value="Show&lt;br style=&quot;font-size: 24px;&quot;&gt;&amp;nbsp;Payment" style="ellipse;whiteSpace=wrap;html=1;fontSize=24;fontStyle=1;fillColor=#76608a;fontColor=#ffffff;strokeColor=#432D57;" parent="1" vertex="1">
          <mxGeometry x="640" y="230" width="140" height="110" as="geometry" />
        </mxCell>
        <mxCell id="1S91zq7ppGTAsVe1ija--34" value="" style="endArrow=none;html=1;rounded=0;entryX=0.25;entryY=0.1;entryDx=0;entryDy=0;entryPerimeter=0;exitX=0.986;exitY=0.597;exitDx=0;exitDy=0;exitPerimeter=0;" parent="1" source="1S91zq7ppGTAsVe1ija--33" target="1S91zq7ppGTAsVe1ija--3" edge="1">
          <mxGeometry width="50" height="50" relative="1" as="geometry">
            <mxPoint x="490" y="480" as="sourcePoint" />
            <mxPoint x="540" y="430" as="targetPoint" />
          </mxGeometry>
        </mxCell>
        <mxCell id="1S91zq7ppGTAsVe1ija--35" value="" style="endArrow=open;endSize=12;dashed=1;html=1;rounded=0;exitX=0.5;exitY=0;exitDx=0;exitDy=0;" parent="1" source="1S91zq7ppGTAsVe1ija--11" target="1S91zq7ppGTAsVe1ija--33" edge="1">
          <mxGeometry width="160" relative="1" as="geometry">
            <mxPoint x="430" y="600" as="sourcePoint" />
            <mxPoint x="590" y="600" as="targetPoint" />
          </mxGeometry>
        </mxCell>
        <mxCell id="1S91zq7ppGTAsVe1ija--36" value="&amp;lt;&amp;lt;include&amp;gt;&amp;gt;" style="text;html=1;strokeColor=none;fillColor=none;align=center;verticalAlign=middle;whiteSpace=wrap;rounded=0;fontSize=16;rotation=-45;" parent="1" vertex="1">
          <mxGeometry x="540" y="420" width="60" height="30" as="geometry" />
        </mxCell>
        <mxCell id="1S91zq7ppGTAsVe1ija--38" value="Receive Payment" style="ellipse;whiteSpace=wrap;html=1;fontSize=24;fontStyle=1;fillColor=#76608a;fontColor=#ffffff;strokeColor=#432D57;" parent="1" vertex="1">
          <mxGeometry x="760" y="530" width="140" height="110" as="geometry" />
        </mxCell>
        <mxCell id="1S91zq7ppGTAsVe1ija--39" value="" style="endArrow=none;html=1;rounded=0;entryX=0.5;entryY=0.5;entryDx=0;entryDy=0;entryPerimeter=0;exitX=0.688;exitY=-0.005;exitDx=0;exitDy=0;exitPerimeter=0;" parent="1" source="1S91zq7ppGTAsVe1ija--38" target="1S91zq7ppGTAsVe1ija--3" edge="1">
          <mxGeometry width="50" height="50" relative="1" as="geometry">
            <mxPoint x="490" y="630" as="sourcePoint" />
            <mxPoint x="540" y="580" as="targetPoint" />
          </mxGeometry>
        </mxCell>
        <mxCell id="1S91zq7ppGTAsVe1ija--40" value="Payment Receipt" style="ellipse;whiteSpace=wrap;html=1;fontSize=24;fontStyle=1;fillColor=#76608a;fontColor=#ffffff;strokeColor=#432D57;" parent="1" vertex="1">
          <mxGeometry x="650" y="840" width="140" height="110" as="geometry" />
        </mxCell>
        <mxCell id="1S91zq7ppGTAsVe1ija--41" value="" style="endArrow=none;html=1;rounded=0;entryX=0;entryY=1;entryDx=0;entryDy=0;entryPerimeter=0;exitX=1;exitY=0;exitDx=0;exitDy=0;" parent="1" source="1S91zq7ppGTAsVe1ija--40" target="1S91zq7ppGTAsVe1ija--3" edge="1">
          <mxGeometry width="50" height="50" relative="1" as="geometry">
            <mxPoint x="866" y="539" as="sourcePoint" />
            <mxPoint x="1040" y="475" as="targetPoint" />
          </mxGeometry>
        </mxCell>
        <mxCell id="1S91zq7ppGTAsVe1ija--46" value="" style="endArrow=none;html=1;rounded=0;entryX=0;entryY=0.5;entryDx=0;entryDy=0;exitX=0;exitY=1;exitDx=0;exitDy=0;exitPerimeter=0;" parent="1" source="1S91zq7ppGTAsVe1ija--2" target="1S91zq7ppGTAsVe1ija--40" edge="1">
          <mxGeometry width="50" height="50" relative="1" as="geometry">
            <mxPoint x="160" y="840" as="sourcePoint" />
            <mxPoint x="540" y="580" as="targetPoint" />
            <Array as="points">
              <mxPoint x="180" y="895" />
            </Array>
          </mxGeometry>
        </mxCell>
      </root>
    </mxGraphModel>
  </diagram>
</mxfile>
